<?xml version="1.0" encoding="utf-8" standalone="no"?>
<!DOCTYPE svg PUBLIC "-//W3C//DTD SVG 1.1//EN"
  "http://www.w3.org/Graphics/SVG/1.1/DTD/svg11.dtd">
<!-- Created with matplotlib (https://matplotlib.org/) -->
<svg height="720pt" version="1.1" viewBox="0 0 1080 720" width="1080pt" xmlns="http://www.w3.org/2000/svg" xmlns:xlink="http://www.w3.org/1999/xlink">
 <defs>
  <style type="text/css">
*{stroke-linecap:butt;stroke-linejoin:round;}
  </style>
 </defs>
 <g id="figure_1">
  <g id="patch_1">
   <path d="M 0 720 
L 1080 720 
L 1080 0 
L 0 0 
z
" style="fill:#ffffff;"/>
  </g>
  <g id="axes_1">
   <g id="patch_2">
    <path d="M 135 640.8 
L 972 640.8 
L 972 86.4 
L 135 86.4 
z
" style="fill:#ffffff;"/>
   </g>
   <g id="PathCollection_1">
    <defs>
     <path d="M -5 5 
L 5 -5 
M -5 -5 
L 5 5 
" id="mbeebcb3262" style="stroke:#1f77b4;stroke-width:1.5;"/>
    </defs>
    <g clip-path="url(#pba20d7e941)">
     <use style="fill:#1f77b4;stroke:#1f77b4;stroke-width:1.5;" x="135" xlink:href="#mbeebcb3262" y="54.583052"/>
     <use style="fill:#1f77b4;stroke:#1f77b4;stroke-width:1.5;" x="142.609091" xlink:href="#mbeebcb3262" y="52.794476"/>
     <use style="fill:#1f77b4;stroke:#1f77b4;stroke-width:1.5;" x="150.218182" xlink:href="#mbeebcb3262" y="51.226489"/>
     <use style="fill:#1f77b4;stroke:#1f77b4;stroke-width:1.5;" x="157.827273" xlink:href="#mbeebcb3262" y="49.880045"/>
     <use style="fill:#1f77b4;stroke:#1f77b4;stroke-width:1.5;" x="165.436364" xlink:href="#mbeebcb3262" y="48.755964"/>
     <use style="fill:#1f77b4;stroke:#1f77b4;stroke-width:1.5;" x="173.045455" xlink:href="#mbeebcb3262" y="47.854928"/>
     <use style="fill:#1f77b4;stroke:#1f77b4;stroke-width:1.5;" x="180.654545" xlink:href="#mbeebcb3262" y="47.177488"/>
     <use style="fill:#1f77b4;stroke:#1f77b4;stroke-width:1.5;" x="188.263636" xlink:href="#mbeebcb3262" y="46.724054"/>
     <use style="fill:#1f77b4;stroke:#1f77b4;stroke-width:1.5;" x="195.872727" xlink:href="#mbeebcb3262" y="46.494903"/>
     <use style="fill:#1f77b4;stroke:#1f77b4;stroke-width:1.5;" x="203.481818" xlink:href="#mbeebcb3262" y="46.490175"/>
     <use style="fill:#1f77b4;stroke:#1f77b4;stroke-width:1.5;" x="211.090909" xlink:href="#mbeebcb3262" y="46.709872"/>
     <use style="fill:#1f77b4;stroke:#1f77b4;stroke-width:1.5;" x="218.7" xlink:href="#mbeebcb3262" y="47.15386"/>
     <use style="fill:#1f77b4;stroke:#1f77b4;stroke-width:1.5;" x="226.309091" xlink:href="#mbeebcb3262" y="47.821869"/>
     <use style="fill:#1f77b4;stroke:#1f77b4;stroke-width:1.5;" x="233.918182" xlink:href="#mbeebcb3262" y="48.713494"/>
     <use style="fill:#1f77b4;stroke:#1f77b4;stroke-width:1.5;" x="241.527273" xlink:href="#mbeebcb3262" y="49.82819"/>
     <use style="fill:#1f77b4;stroke:#1f77b4;stroke-width:1.5;" x="249.136364" xlink:href="#mbeebcb3262" y="51.16528"/>
     <use style="fill:#1f77b4;stroke:#1f77b4;stroke-width:1.5;" x="256.745455" xlink:href="#mbeebcb3262" y="52.723951"/>
     <use style="fill:#1f77b4;stroke:#1f77b4;stroke-width:1.5;" x="264.354545" xlink:href="#mbeebcb3262" y="54.503253"/>
     <use style="fill:#1f77b4;stroke:#1f77b4;stroke-width:1.5;" x="271.963636" xlink:href="#mbeebcb3262" y="56.502105"/>
     <use style="fill:#1f77b4;stroke:#1f77b4;stroke-width:1.5;" x="279.572727" xlink:href="#mbeebcb3262" y="58.719288"/>
     <use style="fill:#1f77b4;stroke:#1f77b4;stroke-width:1.5;" x="287.181818" xlink:href="#mbeebcb3262" y="61.153456"/>
     <use style="fill:#1f77b4;stroke:#1f77b4;stroke-width:1.5;" x="294.790909" xlink:href="#mbeebcb3262" y="63.803125"/>
     <use style="fill:#1f77b4;stroke:#1f77b4;stroke-width:1.5;" x="302.4" xlink:href="#mbeebcb3262" y="66.666685"/>
     <use style="fill:#1f77b4;stroke:#1f77b4;stroke-width:1.5;" x="310.009091" xlink:href="#mbeebcb3262" y="69.742391"/>
     <use style="fill:#1f77b4;stroke:#1f77b4;stroke-width:1.5;" x="317.618182" xlink:href="#mbeebcb3262" y="73.028373"/>
     <use style="fill:#1f77b4;stroke:#1f77b4;stroke-width:1.5;" x="325.227273" xlink:href="#mbeebcb3262" y="76.522631"/>
     <use style="fill:#1f77b4;stroke:#1f77b4;stroke-width:1.5;" x="332.836364" xlink:href="#mbeebcb3262" y="80.223039"/>
     <use style="fill:#1f77b4;stroke:#1f77b4;stroke-width:1.5;" x="340.445455" xlink:href="#mbeebcb3262" y="84.127344"/>
     <use style="fill:#1f77b4;stroke:#1f77b4;stroke-width:1.5;" x="348.054545" xlink:href="#mbeebcb3262" y="88.233172"/>
     <use style="fill:#1f77b4;stroke:#1f77b4;stroke-width:1.5;" x="355.663636" xlink:href="#mbeebcb3262" y="92.538022"/>
     <use style="fill:#1f77b4;stroke:#1f77b4;stroke-width:1.5;" x="363.272727" xlink:href="#mbeebcb3262" y="97.039277"/>
     <use style="fill:#1f77b4;stroke:#1f77b4;stroke-width:1.5;" x="370.881818" xlink:href="#mbeebcb3262" y="101.734196"/>
     <use style="fill:#1f77b4;stroke:#1f77b4;stroke-width:1.5;" x="378.490909" xlink:href="#mbeebcb3262" y="106.619923"/>
     <use style="fill:#1f77b4;stroke:#1f77b4;stroke-width:1.5;" x="386.1" xlink:href="#mbeebcb3262" y="111.693485"/>
     <use style="fill:#1f77b4;stroke:#1f77b4;stroke-width:1.5;" x="393.709091" xlink:href="#mbeebcb3262" y="116.951793"/>
     <use style="fill:#1f77b4;stroke:#1f77b4;stroke-width:1.5;" x="401.318182" xlink:href="#mbeebcb3262" y="122.391649"/>
     <use style="fill:#1f77b4;stroke:#1f77b4;stroke-width:1.5;" x="408.927273" xlink:href="#mbeebcb3262" y="128.009743"/>
     <use style="fill:#1f77b4;stroke:#1f77b4;stroke-width:1.5;" x="416.536364" xlink:href="#mbeebcb3262" y="133.802654"/>
     <use style="fill:#1f77b4;stroke:#1f77b4;stroke-width:1.5;" x="424.145455" xlink:href="#mbeebcb3262" y="139.766859"/>
     <use style="fill:#1f77b4;stroke:#1f77b4;stroke-width:1.5;" x="431.754545" xlink:href="#mbeebcb3262" y="145.898727"/>
     <use style="fill:#1f77b4;stroke:#1f77b4;stroke-width:1.5;" x="439.363636" xlink:href="#mbeebcb3262" y="152.194528"/>
     <use style="fill:#1f77b4;stroke:#1f77b4;stroke-width:1.5;" x="446.972727" xlink:href="#mbeebcb3262" y="158.65043"/>
     <use style="fill:#1f77b4;stroke:#1f77b4;stroke-width:1.5;" x="454.581818" xlink:href="#mbeebcb3262" y="165.262504"/>
     <use style="fill:#1f77b4;stroke:#1f77b4;stroke-width:1.5;" x="462.190909" xlink:href="#mbeebcb3262" y="172.026728"/>
     <use style="fill:#1f77b4;stroke:#1f77b4;stroke-width:1.5;" x="469.8" xlink:href="#mbeebcb3262" y="178.938984"/>
     <use style="fill:#1f77b4;stroke:#1f77b4;stroke-width:1.5;" x="477.409091" xlink:href="#mbeebcb3262" y="185.995067"/>
     <use style="fill:#1f77b4;stroke:#1f77b4;stroke-width:1.5;" x="485.018182" xlink:href="#mbeebcb3262" y="193.190683"/>
     <use style="fill:#1f77b4;stroke:#1f77b4;stroke-width:1.5;" x="492.627273" xlink:href="#mbeebcb3262" y="200.521452"/>
     <use style="fill:#1f77b4;stroke:#1f77b4;stroke-width:1.5;" x="500.236364" xlink:href="#mbeebcb3262" y="207.982915"/>
     <use style="fill:#1f77b4;stroke:#1f77b4;stroke-width:1.5;" x="507.845455" xlink:href="#mbeebcb3262" y="215.57053"/>
     <use style="fill:#1f77b4;stroke:#1f77b4;stroke-width:1.5;" x="515.454545" xlink:href="#mbeebcb3262" y="223.27968"/>
     <use style="fill:#1f77b4;stroke:#1f77b4;stroke-width:1.5;" x="523.063636" xlink:href="#mbeebcb3262" y="231.105674"/>
     <use style="fill:#1f77b4;stroke:#1f77b4;stroke-width:1.5;" x="530.672727" xlink:href="#mbeebcb3262" y="239.04375"/>
     <use style="fill:#1f77b4;stroke:#1f77b4;stroke-width:1.5;" x="538.281818" xlink:href="#mbeebcb3262" y="247.089077"/>
     <use style="fill:#1f77b4;stroke:#1f77b4;stroke-width:1.5;" x="545.890909" xlink:href="#mbeebcb3262" y="255.236759"/>
     <use style="fill:#1f77b4;stroke:#1f77b4;stroke-width:1.5;" x="553.5" xlink:href="#mbeebcb3262" y="263.481839"/>
     <use style="fill:#1f77b4;stroke:#1f77b4;stroke-width:1.5;" x="561.109091" xlink:href="#mbeebcb3262" y="271.819298"/>
     <use style="fill:#1f77b4;stroke:#1f77b4;stroke-width:1.5;" x="568.718182" xlink:href="#mbeebcb3262" y="280.244064"/>
     <use style="fill:#1f77b4;stroke:#1f77b4;stroke-width:1.5;" x="576.327273" xlink:href="#mbeebcb3262" y="288.751009"/>
     <use style="fill:#1f77b4;stroke:#1f77b4;stroke-width:1.5;" x="583.936364" xlink:href="#mbeebcb3262" y="297.334957"/>
     <use style="fill:#1f77b4;stroke:#1f77b4;stroke-width:1.5;" x="591.545455" xlink:href="#mbeebcb3262" y="305.990685"/>
     <use style="fill:#1f77b4;stroke:#1f77b4;stroke-width:1.5;" x="599.154545" xlink:href="#mbeebcb3262" y="314.712925"/>
     <use style="fill:#1f77b4;stroke:#1f77b4;stroke-width:1.5;" x="606.763636" xlink:href="#mbeebcb3262" y="323.496369"/>
     <use style="fill:#1f77b4;stroke:#1f77b4;stroke-width:1.5;" x="614.372727" xlink:href="#mbeebcb3262" y="332.335672"/>
     <use style="fill:#1f77b4;stroke:#1f77b4;stroke-width:1.5;" x="621.981818" xlink:href="#mbeebcb3262" y="341.225456"/>
     <use style="fill:#1f77b4;stroke:#1f77b4;stroke-width:1.5;" x="629.590909" xlink:href="#mbeebcb3262" y="350.160311"/>
     <use style="fill:#1f77b4;stroke:#1f77b4;stroke-width:1.5;" x="637.2" xlink:href="#mbeebcb3262" y="359.1348"/>
     <use style="fill:#1f77b4;stroke:#1f77b4;stroke-width:1.5;" x="644.809091" xlink:href="#mbeebcb3262" y="368.14346"/>
     <use style="fill:#1f77b4;stroke:#1f77b4;stroke-width:1.5;" x="652.418182" xlink:href="#mbeebcb3262" y="377.180812"/>
     <use style="fill:#1f77b4;stroke:#1f77b4;stroke-width:1.5;" x="660.027273" xlink:href="#mbeebcb3262" y="386.241354"/>
     <use style="fill:#1f77b4;stroke:#1f77b4;stroke-width:1.5;" x="667.636364" xlink:href="#mbeebcb3262" y="395.319574"/>
     <use style="fill:#1f77b4;stroke:#1f77b4;stroke-width:1.5;" x="675.245455" xlink:href="#mbeebcb3262" y="404.409947"/>
     <use style="fill:#1f77b4;stroke:#1f77b4;stroke-width:1.5;" x="682.854545" xlink:href="#mbeebcb3262" y="413.506941"/>
     <use style="fill:#1f77b4;stroke:#1f77b4;stroke-width:1.5;" x="690.463636" xlink:href="#mbeebcb3262" y="422.605021"/>
     <use style="fill:#1f77b4;stroke:#1f77b4;stroke-width:1.5;" x="698.072727" xlink:href="#mbeebcb3262" y="431.69865"/>
     <use style="fill:#1f77b4;stroke:#1f77b4;stroke-width:1.5;" x="705.681818" xlink:href="#mbeebcb3262" y="440.782294"/>
     <use style="fill:#1f77b4;stroke:#1f77b4;stroke-width:1.5;" x="713.290909" xlink:href="#mbeebcb3262" y="449.850426"/>
     <use style="fill:#1f77b4;stroke:#1f77b4;stroke-width:1.5;" x="720.9" xlink:href="#mbeebcb3262" y="458.897528"/>
     <use style="fill:#1f77b4;stroke:#1f77b4;stroke-width:1.5;" x="728.509091" xlink:href="#mbeebcb3262" y="467.918094"/>
     <use style="fill:#1f77b4;stroke:#1f77b4;stroke-width:1.5;" x="736.118182" xlink:href="#mbeebcb3262" y="476.906635"/>
     <use style="fill:#1f77b4;stroke:#1f77b4;stroke-width:1.5;" x="743.727273" xlink:href="#mbeebcb3262" y="485.857681"/>
     <use style="fill:#1f77b4;stroke:#1f77b4;stroke-width:1.5;" x="751.336364" xlink:href="#mbeebcb3262" y="494.765785"/>
     <use style="fill:#1f77b4;stroke:#1f77b4;stroke-width:1.5;" x="758.945455" xlink:href="#mbeebcb3262" y="503.625526"/>
     <use style="fill:#1f77b4;stroke:#1f77b4;stroke-width:1.5;" x="766.554545" xlink:href="#mbeebcb3262" y="512.431514"/>
     <use style="fill:#1f77b4;stroke:#1f77b4;stroke-width:1.5;" x="774.163636" xlink:href="#mbeebcb3262" y="521.178389"/>
     <use style="fill:#1f77b4;stroke:#1f77b4;stroke-width:1.5;" x="781.772727" xlink:href="#mbeebcb3262" y="529.860828"/>
     <use style="fill:#1f77b4;stroke:#1f77b4;stroke-width:1.5;" x="789.381818" xlink:href="#mbeebcb3262" y="538.473548"/>
     <use style="fill:#1f77b4;stroke:#1f77b4;stroke-width:1.5;" x="796.990909" xlink:href="#mbeebcb3262" y="547.011309"/>
     <use style="fill:#1f77b4;stroke:#1f77b4;stroke-width:1.5;" x="804.6" xlink:href="#mbeebcb3262" y="555.468914"/>
     <use style="fill:#1f77b4;stroke:#1f77b4;stroke-width:1.5;" x="812.209091" xlink:href="#mbeebcb3262" y="563.841217"/>
     <use style="fill:#1f77b4;stroke:#1f77b4;stroke-width:1.5;" x="819.818182" xlink:href="#mbeebcb3262" y="572.123123"/>
     <use style="fill:#1f77b4;stroke:#1f77b4;stroke-width:1.5;" x="827.427273" xlink:href="#mbeebcb3262" y="580.309592"/>
     <use style="fill:#1f77b4;stroke:#1f77b4;stroke-width:1.5;" x="835.036364" xlink:href="#mbeebcb3262" y="588.395643"/>
     <use style="fill:#1f77b4;stroke:#1f77b4;stroke-width:1.5;" x="842.645455" xlink:href="#mbeebcb3262" y="596.376355"/>
     <use style="fill:#1f77b4;stroke:#1f77b4;stroke-width:1.5;" x="850.254545" xlink:href="#mbeebcb3262" y="604.246872"/>
     <use style="fill:#1f77b4;stroke:#1f77b4;stroke-width:1.5;" x="857.863636" xlink:href="#mbeebcb3262" y="612.002404"/>
     <use style="fill:#1f77b4;stroke:#1f77b4;stroke-width:1.5;" x="865.472727" xlink:href="#mbeebcb3262" y="619.638231"/>
     <use style="fill:#1f77b4;stroke:#1f77b4;stroke-width:1.5;" x="873.081818" xlink:href="#mbeebcb3262" y="627.149708"/>
     <use style="fill:#1f77b4;stroke:#1f77b4;stroke-width:1.5;" x="880.690909" xlink:href="#mbeebcb3262" y="634.532263"/>
     <use style="fill:#1f77b4;stroke:#1f77b4;stroke-width:1.5;" x="888.3" xlink:href="#mbeebcb3262" y="641.781403"/>
    </g>
   </g>
   <g id="matplotlib.axis_1">
    <g id="xtick_1">
     <g id="line2d_1">
      <defs>
       <path d="M 0 0 
L 0 3.5 
" id="m905692c76e" style="stroke:#000000;stroke-width:0.8;"/>
      </defs>
      <g>
       <use style="stroke:#000000;stroke-width:0.8;" x="135" xlink:href="#m905692c76e" y="640.8"/>
      </g>
     </g>
     <g id="text_1">
      <!-- 0 -->
      <defs>
       <path d="M 3.125 29.296875 
Q 3.90625 50 6.4375 56.046875 
Q 8.984375 62.109375 13.671875 66.015625 
Q 18.359375 69.921875 25.1875 69.921875 
Q 32.03125 69.921875 37.109375 64.25 
Q 42.1875 58.59375 43.75 50 
Q 45.3125 41.40625 44.71875 30.265625 
Q 44.140625 19.140625 40.8125 12.109375 
Q 37.5 5.078125 30.859375 2.34375 
Q 24.21875 -0.390625 17.578125 2.921875 
Q 10.9375 6.25 8.203125 11.71875 
Q 5.46875 17.1875 4.296875 23.234375 
Q 3.125 29.296875 3.90625 50 
z
M 12.890625 52.734375 
Q 10.546875 31.25 12.5 22.84375 
Q 14.453125 14.453125 18.9375 10.9375 
Q 23.4375 7.421875 28.125 9.5625 
Q 32.8125 11.71875 34.953125 18.15625 
Q 37.109375 24.609375 37.109375 32.21875 
Q 37.109375 39.84375 36.515625 46.09375 
Q 35.9375 52.34375 33 57.421875 
Q 30.078125 62.5 25.1875 62.6875 
Q 20.3125 62.890625 16.59375 57.8125 
Q 12.890625 52.734375 10.546875 31.25 
z
" id="SimHei-48"/>
      </defs>
      <g transform="translate(130 661.55)scale(0.2 -0.2)">
       <use xlink:href="#SimHei-48"/>
      </g>
     </g>
    </g>
    <g id="xtick_2">
     <g id="line2d_2">
      <g>
       <use style="stroke:#000000;stroke-width:0.8;" x="287.181818" xlink:href="#m905692c76e" y="640.8"/>
      </g>
     </g>
     <g id="text_2">
      <!-- 200 -->
      <defs>
       <path d="M 4.6875 3.90625 
Q 5.078125 9.765625 10.15625 14.453125 
Q 15.234375 19.140625 23.046875 29.09375 
Q 30.859375 39.0625 33.203125 44.53125 
Q 35.546875 50 34.953125 53.90625 
Q 34.375 57.8125 31.25 60.34375 
Q 28.125 62.890625 24.015625 62.5 
Q 19.921875 62.109375 16.203125 59.375 
Q 12.5 56.640625 10.546875 51.171875 
L 3.125 52.34375 
Q 6.25 61.328125 11.125 65.421875 
Q 16.015625 69.53125 22.65625 69.921875 
Q 26.5625 70.3125 29.6875 69.71875 
Q 32.8125 69.140625 36.125 66.984375 
Q 39.453125 64.84375 41.59375 60.546875 
Q 43.75 56.25 43.15625 50.1875 
Q 42.578125 44.140625 37.109375 35.734375 
Q 31.640625 27.34375 16.015625 9.375 
L 44.140625 9.375 
L 44.140625 2.34375 
L 4.6875 2.34375 
z
" id="SimHei-50"/>
      </defs>
      <g transform="translate(272.181818 661.55)scale(0.2 -0.2)">
       <use xlink:href="#SimHei-50"/>
       <use x="50" xlink:href="#SimHei-48"/>
       <use x="100" xlink:href="#SimHei-48"/>
      </g>
     </g>
    </g>
    <g id="xtick_3">
     <g id="line2d_3">
      <g>
       <use style="stroke:#000000;stroke-width:0.8;" x="439.363636" xlink:href="#m905692c76e" y="640.8"/>
      </g>
     </g>
     <g id="text_3">
      <!-- 400 -->
      <defs>
       <path d="M 31.25 17.1875 
L 1.171875 17.1875 
L 1.171875 23.828125 
L 32.8125 69.53125 
L 38.671875 69.53125 
L 38.671875 23.828125 
L 48.046875 23.828125 
L 48.046875 17.1875 
L 38.671875 17.1875 
L 38.671875 2.34375 
L 31.25 2.34375 
z
M 31.25 23.828125 
L 31.25 54.6875 
L 9.375 23.828125 
z
" id="SimHei-52"/>
      </defs>
      <g transform="translate(424.363636 661.55)scale(0.2 -0.2)">
       <use xlink:href="#SimHei-52"/>
       <use x="50" xlink:href="#SimHei-48"/>
       <use x="100" xlink:href="#SimHei-48"/>
      </g>
     </g>
    </g>
    <g id="xtick_4">
     <g id="line2d_4">
      <g>
       <use style="stroke:#000000;stroke-width:0.8;" x="591.545455" xlink:href="#m905692c76e" y="640.8"/>
      </g>
     </g>
     <g id="text_4">
      <!-- 600 -->
      <defs>
       <path d="M 3.515625 19.53125 
Q 4.296875 30.859375 6.046875 34.765625 
Q 7.8125 38.671875 11.328125 44.53125 
L 27.34375 69.53125 
L 36.328125 69.53125 
L 19.921875 43.75 
Q 30.46875 46.484375 36.71875 42.96875 
Q 42.96875 39.453125 45.109375 34.953125 
Q 47.265625 30.46875 47.453125 25.1875 
Q 47.65625 19.921875 45.890625 14.84375 
Q 44.140625 9.765625 39.640625 5.65625 
Q 35.15625 1.5625 27.140625 1.171875 
Q 19.140625 0.78125 13.46875 4.09375 
Q 7.8125 7.421875 5.65625 13.46875 
Q 3.515625 19.53125 4.296875 30.859375 
z
M 12.5 16.015625 
Q 19.53125 8.59375 25.390625 8.203125 
Q 31.25 7.8125 35.15625 12.109375 
Q 39.0625 16.40625 39.0625 24.609375 
Q 39.0625 32.8125 34.171875 35.9375 
Q 29.296875 39.0625 23.234375 38.28125 
Q 17.1875 37.5 14.453125 32.421875 
Q 11.71875 27.34375 12.109375 21.671875 
Q 12.5 16.015625 19.53125 8.59375 
z
" id="SimHei-54"/>
      </defs>
      <g transform="translate(576.545455 661.55)scale(0.2 -0.2)">
       <use xlink:href="#SimHei-54"/>
       <use x="50" xlink:href="#SimHei-48"/>
       <use x="100" xlink:href="#SimHei-48"/>
      </g>
     </g>
    </g>
    <g id="xtick_5">
     <g id="line2d_5">
      <g>
       <use style="stroke:#000000;stroke-width:0.8;" x="743.727273" xlink:href="#m905692c76e" y="640.8"/>
      </g>
     </g>
     <g id="text_5">
      <!-- 800 -->
      <defs>
       <path d="M 2.734375 16.796875 
Q 2.734375 26.171875 5.078125 30.65625 
Q 7.421875 35.15625 12.890625 37.890625 
Q 8.203125 40.625 6.640625 43.9375 
Q 5.078125 47.265625 4.875 51.5625 
Q 4.6875 55.859375 6.046875 58.984375 
Q 7.421875 62.109375 10.15625 64.84375 
Q 12.890625 67.578125 16.203125 68.546875 
Q 19.53125 69.53125 23.4375 69.53125 
Q 27.34375 69.53125 30.46875 68.75 
Q 33.59375 67.96875 37.109375 65.421875 
Q 40.625 62.890625 42.1875 58.203125 
Q 43.75 53.515625 41.984375 47.265625 
Q 40.234375 41.015625 32.8125 37.5 
Q 39.453125 35.546875 42.1875 31.4375 
Q 44.921875 27.34375 44.921875 21.484375 
Q 44.921875 15.625 43.15625 12.109375 
Q 41.40625 8.59375 39.25 6.25 
Q 37.109375 3.90625 33.390625 2.53125 
Q 29.6875 1.171875 24.015625 1.171875 
Q 18.359375 1.171875 14.25 2.53125 
Q 10.15625 3.90625 7.421875 6.640625 
Q 4.6875 9.375 3.703125 13.078125 
Q 2.734375 16.796875 2.734375 26.171875 
z
M 10.9375 26.5625 
Q 10.546875 17.1875 12.296875 13.671875 
Q 14.0625 10.15625 18.75 9.171875 
Q 23.4375 8.203125 28.515625 9.375 
Q 33.59375 10.546875 35.546875 14.84375 
Q 37.5 19.140625 36.90625 23.4375 
Q 36.328125 27.734375 32.03125 30.65625 
Q 27.734375 33.59375 22.65625 33.203125 
Q 17.578125 32.8125 14.25 29.6875 
Q 10.9375 26.5625 10.546875 17.1875 
z
M 12.109375 56.25 
Q 12.109375 48.4375 14.84375 44.921875 
Q 17.578125 41.40625 23.4375 41.40625 
Q 29.296875 41.40625 32.21875 44.921875 
Q 35.15625 48.4375 34.953125 53.3125 
Q 34.765625 58.203125 31.4375 60.546875 
Q 28.125 62.890625 22.453125 62.5 
Q 16.796875 62.109375 14.453125 59.171875 
Q 12.109375 56.25 12.109375 48.4375 
z
" id="SimHei-56"/>
      </defs>
      <g transform="translate(728.727273 661.55)scale(0.2 -0.2)">
       <use xlink:href="#SimHei-56"/>
       <use x="50" xlink:href="#SimHei-48"/>
       <use x="100" xlink:href="#SimHei-48"/>
      </g>
     </g>
    </g>
    <g id="xtick_6">
     <g id="line2d_6">
      <g>
       <use style="stroke:#000000;stroke-width:0.8;" x="895.909091" xlink:href="#m905692c76e" y="640.8"/>
      </g>
     </g>
     <g id="text_6">
      <!-- 1000 -->
      <defs>
       <path d="M 21.875 56.25 
Q 16.796875 51.171875 8.984375 46.484375 
L 8.984375 53.90625 
Q 18.75 60.546875 25 69.53125 
L 29.6875 69.53125 
L 29.6875 2.34375 
L 21.875 2.34375 
z
" id="SimHei-49"/>
      </defs>
      <g transform="translate(875.909091 661.55)scale(0.2 -0.2)">
       <use xlink:href="#SimHei-49"/>
       <use x="50" xlink:href="#SimHei-48"/>
       <use x="100" xlink:href="#SimHei-48"/>
       <use x="150" xlink:href="#SimHei-48"/>
      </g>
     </g>
    </g>
    <g id="text_7">
     <!-- 时间(分钟) -->
     <defs>
      <path d="M 39.453125 71.484375 
Q 39.0625 57.421875 39.0625 37.5 
Q 39.0625 17.578125 39.453125 6.25 
L 31.25 6.25 
L 31.25 13.671875 
L 15.625 13.671875 
L 15.625 0.78125 
L 7.421875 0.78125 
Q 7.8125 18.75 7.8125 36.71875 
Q 7.8125 55.078125 7.421875 71.484375 
L 39.453125 71.484375 
z
M 76.171875 59.765625 
Q 76.171875 71.484375 75.78125 81.640625 
L 84.375 81.640625 
Q 83.984375 71.484375 83.984375 59.765625 
Q 89.84375 59.765625 96.484375 60.15625 
L 96.484375 52.734375 
Q 89.84375 53.125 83.984375 53.125 
L 83.984375 0.78125 
Q 83.984375 -5.078125 79.296875 -6.640625 
Q 74.609375 -8.203125 67.1875 -8.984375 
Q 67.1875 -4.296875 62.890625 0 
Q 70.3125 -0.78125 73.234375 -0.390625 
Q 76.171875 0 76.171875 4.6875 
L 76.171875 53.125 
Q 56.640625 53.125 43.359375 52.734375 
L 43.359375 60.15625 
Q 55.859375 59.765625 76.171875 59.765625 
z
M 31.25 20.3125 
L 31.25 39.84375 
L 15.625 39.84375 
L 15.625 20.3125 
z
M 31.25 46.484375 
L 31.25 64.84375 
L 15.625 64.84375 
L 15.625 46.484375 
z
M 55.46875 42.578125 
Q 60.546875 34.375 65.234375 25 
Q 61.328125 23.828125 57.03125 21.484375 
Q 53.90625 30.859375 48.046875 39.0625 
Q 51.5625 40.625 55.46875 42.578125 
z
" id="SimHei-26102"/>
      <path d="M 69.53125 55.46875 
Q 69.140625 48.046875 69.140625 42.578125 
L 69.140625 21.875 
Q 69.140625 16.796875 69.53125 9.765625 
L 30.078125 9.765625 
Q 30.46875 16.796875 30.46875 22.265625 
L 30.46875 42.578125 
Q 30.46875 48.046875 30.078125 55.46875 
L 69.53125 55.46875 
z
M 90.625 76.171875 
Q 90.234375 68.75 90.234375 61.328125 
L 90.234375 3.90625 
Q 90.625 -5.078125 85.34375 -7.03125 
Q 80.078125 -8.984375 73.828125 -9.765625 
Q 73.4375 -5.078125 70.703125 -0.390625 
Q 78.125 -0.78125 80.265625 0.390625 
Q 82.421875 1.5625 82.421875 5.46875 
L 82.421875 69.53125 
L 58.984375 69.53125 
Q 49.609375 69.53125 41.40625 69.140625 
L 41.40625 76.5625 
Q 49.609375 76.171875 58.984375 76.171875 
z
M 8.59375 -8.203125 
Q 9.375 -0.390625 9.375 8.203125 
L 9.375 49.21875 
Q 9.375 57.421875 8.59375 62.890625 
L 17.578125 62.890625 
Q 17.1875 57.03125 17.1875 51.5625 
L 17.1875 7.8125 
Q 17.1875 0 17.578125 -8.203125 
z
M 61.71875 16.015625 
L 61.71875 30.46875 
L 37.890625 30.46875 
L 37.890625 16.015625 
z
M 61.71875 36.71875 
L 61.71875 49.21875 
L 37.890625 49.21875 
L 37.890625 36.71875 
z
M 23.828125 82.8125 
Q 27.34375 78.125 34.765625 67.96875 
Q 30.46875 66.015625 26.5625 63.671875 
Q 22.65625 71.484375 16.796875 78.515625 
Q 21.09375 81.640625 23.828125 82.8125 
z
" id="SimHei-38388"/>
      <path d="M 46.484375 -3.125 
L 42.1875 -7.421875 
Q 32.421875 1.953125 27.53125 12.109375 
Q 22.65625 22.265625 22.65625 35.15625 
Q 22.65625 48.046875 27.53125 58.203125 
Q 32.421875 68.359375 42.1875 78.125 
L 46.484375 73.828125 
Q 37.5 65.234375 33 56.046875 
Q 28.515625 46.875 28.515625 35.15625 
Q 28.515625 23.4375 33 14.25 
Q 37.5 5.078125 46.484375 -3.125 
z
" id="SimHei-40"/>
      <path d="M 15.625 -10.15625 
Q 12.890625 -5.859375 8.984375 -3.515625 
Q 15.234375 -1.171875 20.3125 2.140625 
Q 25.390625 5.46875 29.296875 10.34375 
Q 33.203125 15.234375 35.15625 21.09375 
Q 37.109375 26.953125 37.890625 35.546875 
Q 28.90625 35.546875 23.4375 35.15625 
L 23.4375 43.359375 
Q 29.6875 42.96875 39.453125 42.96875 
L 78.515625 42.96875 
Q 77.734375 37.109375 77.34375 32.8125 
L 74.21875 3.90625 
Q 73.4375 -3.125 67.96875 -5.46875 
Q 62.5 -7.8125 55.859375 -8.203125 
Q 55.46875 -4.296875 51.953125 0.78125 
Q 60.15625 0.390625 63.078125 1.359375 
Q 66.015625 2.34375 66.796875 8.203125 
L 69.53125 35.546875 
L 46.09375 35.546875 
Q 44.921875 25.390625 42.765625 18.546875 
Q 40.625 11.71875 36.71875 6.640625 
Q 32.8125 1.5625 27.34375 -2.734375 
Q 21.875 -7.03125 15.625 -10.15625 
z
M 61.71875 80.859375 
Q 64.453125 72.65625 72.84375 62.109375 
Q 81.25 51.5625 96.484375 43.75 
Q 93.359375 41.015625 90.234375 35.546875 
Q 83.203125 40.625 77.921875 45.109375 
Q 72.65625 49.609375 69.140625 53.515625 
Q 65.625 57.421875 61.328125 64.640625 
Q 57.03125 71.875 54.296875 78.125 
Q 58.59375 79.296875 61.71875 80.859375 
z
M 42.1875 75.390625 
Q 38.671875 69.140625 36.328125 64.453125 
Q 33.984375 59.765625 31.640625 56.046875 
Q 29.296875 52.34375 24.609375 46.09375 
Q 19.921875 39.84375 13.28125 33.203125 
Q 9.765625 36.71875 6.25 38.671875 
Q 14.0625 45.703125 18.546875 51.5625 
Q 23.046875 57.421875 27.140625 64.25 
Q 31.25 71.09375 34.375 79.296875 
Q 37.5 76.953125 42.1875 75.390625 
z
" id="SimHei-20998"/>
      <path d="M 44.53125 48.4375 
Q 44.53125 53.125 44.140625 60.546875 
L 63.671875 60.546875 
L 63.671875 69.53125 
Q 63.671875 73.4375 63.28125 79.6875 
L 71.875 79.6875 
Q 71.484375 75 71.484375 69.140625 
L 71.484375 60.546875 
L 91.796875 60.546875 
Q 91.40625 52.734375 91.40625 49.21875 
L 91.40625 23.4375 
Q 91.40625 19.53125 91.796875 14.453125 
L 83.984375 14.453125 
L 83.984375 21.484375 
L 71.484375 21.484375 
L 71.484375 6.25 
Q 71.484375 1.171875 71.875 -9.375 
L 63.28125 -9.375 
Q 63.671875 1.5625 63.671875 6.25 
L 63.671875 21.484375 
L 51.953125 21.484375 
L 51.953125 14.453125 
L 43.75 14.453125 
Q 44.53125 19.140625 44.53125 22.65625 
z
M 14.453125 49.21875 
Q 19.921875 48.828125 25.78125 48.828125 
Q 31.640625 48.828125 37.5 49.21875 
L 37.5 42.578125 
Q 31.25 42.96875 27.734375 42.96875 
L 27.734375 31.640625 
Q 33.59375 31.640625 40.234375 32.03125 
L 40.234375 25 
Q 33.59375 25.390625 27.734375 25.390625 
L 27.734375 6.640625 
L 37.5 14.453125 
Q 38.28125 10.9375 40.234375 7.421875 
Q 37.5 5.46875 32.609375 1.5625 
Q 27.734375 -2.34375 22.265625 -7.421875 
Q 19.53125 -3.90625 16.796875 -1.171875 
Q 19.140625 1.171875 20.3125 8.59375 
L 20.3125 25.390625 
Q 15.234375 25.390625 8.984375 25 
L 8.984375 32.03125 
Q 15.625 31.640625 20.3125 31.640625 
L 20.3125 42.96875 
Q 17.96875 42.96875 14.453125 42.578125 
z
M 30.078125 76.953125 
Q 28.125 73.828125 26.75 70.890625 
Q 25.390625 67.96875 23.828125 65.234375 
L 29.296875 65.234375 
Q 34.375 65.234375 39.84375 65.625 
L 39.84375 58.59375 
Q 32.8125 58.984375 28.125 58.984375 
L 20.3125 58.984375 
Q 17.578125 55.078125 14.640625 51.5625 
Q 11.71875 48.046875 8.203125 44.53125 
Q 6.640625 47.65625 3.515625 50.390625 
Q 9.375 56.25 13.859375 63.46875 
Q 18.359375 70.703125 20.3125 79.6875 
Q 26.171875 77.734375 30.078125 76.953125 
z
M 83.984375 27.734375 
L 83.984375 54.296875 
L 71.484375 54.296875 
L 71.484375 27.734375 
z
M 63.671875 27.734375 
L 63.671875 54.296875 
L 51.953125 54.296875 
L 51.953125 27.734375 
z
" id="SimHei-38047"/>
      <path d="M 26.171875 35.15625 
Q 26.171875 22.265625 21.28125 12.109375 
Q 16.40625 1.953125 6.640625 -7.421875 
L 2.34375 -3.125 
Q 11.328125 5.078125 15.8125 14.25 
Q 20.3125 23.4375 20.3125 35.15625 
Q 20.3125 46.875 15.8125 56.046875 
Q 11.328125 65.234375 2.34375 73.828125 
L 6.640625 78.125 
Q 16.40625 68.359375 21.28125 58.203125 
Q 26.171875 48.046875 26.171875 35.15625 
z
" id="SimHei-41"/>
     </defs>
     <g transform="translate(503.5 684.14375)scale(0.2 -0.2)">
      <use xlink:href="#SimHei-26102"/>
      <use x="100" xlink:href="#SimHei-38388"/>
      <use x="200" xlink:href="#SimHei-40"/>
      <use x="250" xlink:href="#SimHei-20998"/>
      <use x="350" xlink:href="#SimHei-38047"/>
      <use x="450" xlink:href="#SimHei-41"/>
     </g>
    </g>
   </g>
   <g id="matplotlib.axis_2">
    <g id="ytick_1">
     <g id="line2d_7">
      <defs>
       <path d="M 0 0 
L -3.5 0 
" id="m8d7cc537fc" style="stroke:#000000;stroke-width:0.8;"/>
      </defs>
      <g>
       <use style="stroke:#000000;stroke-width:0.8;" x="135" xlink:href="#m8d7cc537fc" y="579.924842"/>
      </g>
     </g>
     <g id="text_8">
      <!-- -1 -->
      <defs>
       <path d="M 46.484375 33.203125 
L 1.953125 33.203125 
L 1.953125 39.453125 
L 46.484375 39.453125 
z
" id="SimHei-45"/>
      </defs>
      <g transform="translate(108 586.799842)scale(0.2 -0.2)">
       <use xlink:href="#SimHei-45"/>
       <use x="50" xlink:href="#SimHei-49"/>
      </g>
     </g>
    </g>
    <g id="ytick_2">
     <g id="line2d_8">
      <g>
       <use style="stroke:#000000;stroke-width:0.8;" x="135" xlink:href="#m8d7cc537fc" y="492.109025"/>
      </g>
     </g>
     <g id="text_9">
      <!-- 0 -->
      <g transform="translate(118 498.984025)scale(0.2 -0.2)">
       <use xlink:href="#SimHei-48"/>
      </g>
     </g>
    </g>
    <g id="ytick_3">
     <g id="line2d_9">
      <g>
       <use style="stroke:#000000;stroke-width:0.8;" x="135" xlink:href="#m8d7cc537fc" y="404.293208"/>
      </g>
     </g>
     <g id="text_10">
      <!-- 1 -->
      <g transform="translate(118 411.168208)scale(0.2 -0.2)">
       <use xlink:href="#SimHei-49"/>
      </g>
     </g>
    </g>
    <g id="ytick_4">
     <g id="line2d_10">
      <g>
       <use style="stroke:#000000;stroke-width:0.8;" x="135" xlink:href="#m8d7cc537fc" y="316.47739"/>
      </g>
     </g>
     <g id="text_11">
      <!-- 2 -->
      <g transform="translate(118 323.35239)scale(0.2 -0.2)">
       <use xlink:href="#SimHei-50"/>
      </g>
     </g>
    </g>
    <g id="ytick_5">
     <g id="line2d_11">
      <g>
       <use style="stroke:#000000;stroke-width:0.8;" x="135" xlink:href="#m8d7cc537fc" y="228.661573"/>
      </g>
     </g>
     <g id="text_12">
      <!-- 3 -->
      <defs>
       <path d="M 3.90625 19.140625 
L 10.9375 20.3125 
Q 12.5 15.234375 16.015625 11.90625 
Q 19.53125 8.59375 24.796875 8.78125 
Q 30.078125 8.984375 33.203125 13.078125 
Q 36.328125 17.1875 35.9375 22.453125 
Q 35.546875 27.734375 31.828125 30.65625 
Q 28.125 33.59375 19.921875 34.765625 
L 19.921875 39.84375 
Q 28.125 40.625 31.828125 44.140625 
Q 35.546875 47.65625 35.15625 53.3125 
Q 34.765625 58.984375 30.078125 61.515625 
Q 25.390625 64.0625 20.109375 62.109375 
Q 14.84375 60.15625 11.71875 51.171875 
L 4.6875 52.34375 
Q 7.03125 59.375 11.125 64.0625 
Q 15.234375 68.75 22.265625 69.53125 
Q 29.296875 70.3125 34.5625 67.765625 
Q 39.84375 65.234375 41.984375 59.953125 
Q 44.140625 54.6875 42.578125 48.4375 
Q 41.015625 42.1875 33.59375 37.5 
Q 39.0625 35.15625 41.984375 30.46875 
Q 44.921875 25.78125 43.9375 18.15625 
Q 42.96875 10.546875 37.109375 5.859375 
Q 31.25 1.171875 23.828125 1.359375 
Q 16.40625 1.5625 10.9375 6.046875 
Q 5.46875 10.546875 3.90625 19.140625 
z
" id="SimHei-51"/>
      </defs>
      <g transform="translate(118 235.536573)scale(0.2 -0.2)">
       <use xlink:href="#SimHei-51"/>
      </g>
     </g>
    </g>
    <g id="ytick_6">
     <g id="line2d_12">
      <g>
       <use style="stroke:#000000;stroke-width:0.8;" x="135" xlink:href="#m8d7cc537fc" y="140.845756"/>
      </g>
     </g>
     <g id="text_13">
      <!-- 4 -->
      <g transform="translate(118 147.720756)scale(0.2 -0.2)">
       <use xlink:href="#SimHei-52"/>
      </g>
     </g>
    </g>
    <g id="text_14">
     <!-- y(10^8米) -->
     <defs>
      <path d="M 45.3125 45.703125 
L 27.34375 -1.5625 
Q 25.78125 -7.03125 22.65625 -9.765625 
Q 19.53125 -12.5 14.84375 -12.5 
Q 12.890625 -12.5 11.125 -12.296875 
Q 9.375 -12.109375 7.8125 -11.328125 
L 7.8125 -3.515625 
Q 9.375 -4.296875 10.9375 -4.6875 
Q 12.5 -5.078125 13.671875 -5.078125 
Q 16.796875 -5.078125 17.96875 -4.09375 
Q 19.140625 -3.125 20.3125 0.390625 
L 3.125 45.703125 
L 11.71875 45.703125 
L 24.21875 11.328125 
L 24.609375 11.328125 
L 36.71875 45.703125 
z
" id="SimHei-121"/>
      <path d="M 42.96875 64.453125 
L 35.9375 64.453125 
L 24.21875 74.21875 
L 12.5 64.453125 
L 5.46875 64.453125 
L 19.53125 80.46875 
L 28.90625 80.46875 
z
" id="SimHei-94"/>
      <path d="M 46.484375 44.53125 
L 46.484375 69.53125 
Q 46.484375 76.5625 45.3125 82.03125 
L 54.6875 82.03125 
Q 54.296875 74.609375 54.296875 69.53125 
L 54.296875 44.53125 
L 79.296875 44.53125 
Q 86.71875 44.53125 94.921875 44.921875 
L 94.921875 37.109375 
Q 86.71875 37.890625 79.296875 37.890625 
L 60.9375 37.890625 
Q 67.1875 27.34375 75.1875 20.890625 
Q 83.203125 14.453125 96.09375 10.546875 
Q 91.015625 3.90625 91.40625 0.78125 
Q 78.125 7.03125 70.109375 14.453125 
Q 62.109375 21.875 54.296875 36.328125 
L 54.296875 2.34375 
Q 54.296875 -1.953125 54.6875 -10.15625 
L 46.09375 -10.15625 
Q 46.484375 -1.953125 46.484375 2.34375 
L 46.484375 36.71875 
L 45.3125 36.71875 
Q 41.015625 23.828125 33.78125 14.84375 
Q 26.5625 5.859375 11.328125 -1.953125 
Q 10.15625 1.171875 5.46875 6.640625 
Q 16.40625 9.765625 24.609375 17.578125 
Q 32.8125 25.390625 37.890625 37.890625 
L 18.75 37.890625 
Q 13.28125 37.890625 4.6875 37.109375 
L 4.6875 44.921875 
Q 13.28125 44.53125 18.75 44.53125 
z
M 64.0625 56.25 
Q 71.484375 65.625 76.5625 77.34375 
Q 81.25 74.609375 85.9375 72.265625 
Q 83.203125 69.921875 79.484375 64.25 
Q 75.78125 58.59375 71.484375 51.953125 
Q 67.96875 54.296875 64.0625 56.25 
z
M 27.734375 51.953125 
Q 23.046875 62.109375 16.015625 71.484375 
Q 19.921875 73.828125 23.4375 76.171875 
Q 30.46875 66.796875 35.9375 56.640625 
Q 31.25 54.6875 27.734375 51.953125 
z
" id="SimHei-31859"/>
     </defs>
     <g transform="translate(101.5 408.6)rotate(-90)scale(0.2 -0.2)">
      <use xlink:href="#SimHei-121"/>
      <use x="50" xlink:href="#SimHei-40"/>
      <use x="100" xlink:href="#SimHei-49"/>
      <use x="150" xlink:href="#SimHei-48"/>
      <use x="200" xlink:href="#SimHei-94"/>
      <use x="250" xlink:href="#SimHei-56"/>
      <use x="300" xlink:href="#SimHei-31859"/>
      <use x="400" xlink:href="#SimHei-41"/>
     </g>
    </g>
   </g>
   <g id="line2d_13">
    <path clip-path="url(#pba20d7e941)" d="M 135 157.111032 
L 143.378378 153.043801 
L 151.756757 149.226727 
L 160.135135 145.662627 
L 168.513514 142.354129 
L 176.891892 139.303675 
L 184.5086 136.756355 
L 192.125307 134.42571 
L 199.742015 132.31316 
L 207.358722 130.419995 
L 214.97543 128.747368 
L 222.592138 127.296299 
L 230.208845 126.067673 
L 237.825553 125.062239 
L 245.44226 124.280611 
L 253.058968 123.723264 
L 260.675676 123.390539 
L 268.292383 123.282639 
L 275.909091 123.399628 
L 283.525799 123.741437 
L 291.142506 124.307857 
L 298.759214 125.098541 
L 306.375921 126.113009 
L 313.992629 127.350642 
L 321.609337 128.810684 
L 329.226044 130.492245 
L 336.842752 132.394302 
L 344.459459 134.515692 
L 352.076167 136.855124 
L 359.692875 139.41117 
L 367.309582 142.182272 
L 375.687961 145.476854 
L 384.066339 149.027176 
L 392.444717 152.830618 
L 400.823096 156.884374 
L 409.201474 161.185454 
L 417.579853 165.730684 
L 425.958231 170.516711 
L 435.09828 176.008306 
L 444.238329 181.777441 
L 453.378378 187.819052 
L 462.518428 194.127834 
L 471.658477 200.698247 
L 481.560197 208.104743 
L 491.461916 215.803887 
L 501.363636 223.787745 
L 511.265356 232.04809 
L 521.928747 241.243285 
L 532.592138 250.738276 
L 543.255528 260.521715 
L 554.68059 271.310771 
L 566.105651 282.402727 
L 578.292383 294.550858 
L 590.479115 307.007343 
L 603.427518 320.558467 
L 617.137592 335.235662 
L 631.609337 351.063847 
L 646.842752 368.059786 
L 663.599509 387.103098 
L 681.879607 408.229011 
L 702.444717 432.343979 
L 728.341523 463.075455 
L 812.125307 562.789866 
L 832.690418 586.749901 
L 850.208845 606.83269 
L 866.203931 624.847659 
L 881.437346 641.673694 
L 895.909091 657.321219 
L 895.909091 657.321219 
" style="fill:none;stroke:#ff0000;stroke-linecap:square;stroke-width:3;"/>
   </g>
   <g id="patch_3">
    <path d="M 135 640.8 
L 135 86.4 
" style="fill:none;stroke:#000000;stroke-linecap:square;stroke-linejoin:miter;stroke-width:0.8;"/>
   </g>
   <g id="patch_4">
    <path d="M 972 640.8 
L 972 86.4 
" style="fill:none;stroke:#000000;stroke-linecap:square;stroke-linejoin:miter;stroke-width:0.8;"/>
   </g>
   <g id="patch_5">
    <path d="M 135 640.8 
L 972 640.8 
" style="fill:none;stroke:#000000;stroke-linecap:square;stroke-linejoin:miter;stroke-width:0.8;"/>
   </g>
   <g id="patch_6">
    <path d="M 135 86.4 
L 972 86.4 
" style="fill:none;stroke:#000000;stroke-linecap:square;stroke-linejoin:miter;stroke-width:0.8;"/>
   </g>
   <g id="legend_1">
    <g id="patch_7">
     <path d="M 863.88 136.3275 
L 965 136.3275 
Q 967 136.3275 967 134.3275 
L 967 93.4 
Q 967 91.4 965 91.4 
L 863.88 91.4 
Q 861.88 91.4 861.88 93.4 
L 861.88 134.3275 
Q 861.88 136.3275 863.88 136.3275 
z
" style="fill:#ffffff;opacity:0.8;stroke:#cccccc;stroke-linejoin:miter;"/>
    </g>
    <g id="line2d_14">
     <path d="M 865.88 105.8725 
L 885.88 105.8725 
" style="fill:none;stroke:#ff0000;stroke-linecap:square;stroke-width:3;"/>
    </g>
    <g id="line2d_15"/>
    <g id="text_15">
     <!-- 拟合曲线 -->
     <defs>
      <path d="M 26.171875 1.953125 
Q 26.171875 -2.734375 23.4375 -4.296875 
Q 20.703125 -5.859375 12.5 -7.8125 
Q 11.71875 -3.515625 8.984375 0 
Q 19.140625 0.390625 19.140625 4.296875 
L 19.140625 29.296875 
Q 10.9375 25.390625 7.421875 23.4375 
Q 5.859375 28.125 3.90625 30.859375 
Q 8.203125 32.03125 19.140625 36.328125 
L 19.140625 55.46875 
Q 11.328125 55.46875 5.46875 55.078125 
L 5.46875 62.5 
Q 10.9375 61.71875 19.140625 61.71875 
Q 19.140625 72.265625 18.75 81.640625 
L 26.953125 81.640625 
Q 26.171875 71.09375 26.171875 61.71875 
Q 31.640625 61.71875 36.328125 62.109375 
L 36.328125 55.078125 
Q 30.859375 55.46875 26.171875 55.46875 
L 26.171875 38.671875 
Q 33.59375 41.796875 35.9375 43.75 
Q 35.9375 39.84375 36.328125 36.328125 
Q 33.203125 35.15625 26.171875 32.03125 
z
M 77.34375 78.90625 
Q 82.421875 78.515625 85.9375 78.125 
Q 84.765625 72.65625 85.15625 52.140625 
Q 85.546875 31.640625 82.03125 19.921875 
Q 91.40625 8.59375 96.875 -0.78125 
Q 93.359375 -3.515625 90.234375 -6.25 
Q 86.328125 1.5625 78.90625 12.5 
Q 75 7.03125 69.328125 1.75 
Q 63.671875 -3.515625 51.953125 -10.15625 
Q 49.609375 -7.03125 45.703125 -3.90625 
Q 53.515625 -0.390625 60.9375 5.078125 
Q 68.359375 10.546875 72.0625 16.40625 
Q 75.78125 22.265625 76.953125 33.59375 
Q 78.125 44.921875 77.34375 78.90625 
z
M 39.0625 10.9375 
Q 41.796875 13.671875 41.796875 18.75 
L 41.796875 54.296875 
Q 41.796875 61.328125 41.40625 68.75 
L 49.609375 68.75 
Q 48.828125 62.109375 48.828125 54.6875 
L 48.828125 18.359375 
Q 58.984375 28.90625 63.28125 34.375 
Q 64.84375 30.078125 67.1875 26.953125 
Q 62.890625 23.4375 45.3125 4.6875 
L 39.0625 10.9375 
z
M 59.375 79.6875 
Q 68.359375 62.890625 71.484375 55.46875 
Q 66.40625 53.125 64.0625 51.5625 
Q 60.15625 60.546875 52.734375 76.171875 
Q 55.859375 77.34375 59.375 79.6875 
z
" id="SimHei-25311"/>
      <path d="M 78.90625 28.125 
Q 78.515625 24.21875 78.515625 10.15625 
Q 78.515625 -3.90625 78.90625 -8.203125 
L 70.703125 -8.203125 
L 70.703125 -0.78125 
L 27.34375 -0.78125 
L 27.34375 -9.375 
L 19.53125 -9.375 
Q 19.921875 -4.6875 19.921875 8.59375 
Q 19.921875 22.265625 19.53125 28.125 
L 78.90625 28.125 
z
M 52.734375 75 
Q 64.0625 61.328125 71.09375 56.25 
Q 78.125 51.171875 83.984375 48.4375 
Q 89.84375 45.703125 95.3125 44.140625 
Q 91.40625 39.84375 90.234375 35.9375 
Q 82.421875 39.453125 76.171875 43.359375 
Q 69.921875 47.265625 63.46875 53.3125 
Q 57.03125 59.375 48.828125 69.921875 
Q 41.40625 59.375 34.171875 52.53125 
Q 26.953125 45.703125 21.875 41.796875 
Q 16.796875 37.890625 10.546875 33.984375 
Q 9.765625 35.546875 4.296875 40.234375 
Q 12.5 44.140625 19.921875 49.609375 
Q 27.34375 55.078125 34.765625 63.46875 
Q 42.1875 71.875 46.875 81.640625 
Q 51.171875 78.90625 54.6875 77.34375 
z
M 70.703125 5.46875 
L 70.703125 21.875 
L 27.34375 21.875 
L 27.34375 5.46875 
z
M 61.328125 44.140625 
Q 67.578125 44.140625 72.265625 44.53125 
L 72.265625 37.109375 
Q 67.1875 37.5 61.71875 37.5 
L 39.84375 37.5 
Q 31.640625 37.5 26.5625 37.109375 
L 26.5625 44.53125 
Q 33.984375 44.140625 39.84375 44.140625 
z
" id="SimHei-21512"/>
      <path d="M 91.015625 7.8125 
Q 91.015625 -3.125 91.40625 -8.59375 
L 82.421875 -8.59375 
L 82.421875 -0.78125 
L 17.96875 -0.78125 
L 17.96875 -8.59375 
L 8.984375 -8.59375 
Q 9.375 1.953125 9.375 8.59375 
L 9.375 43.359375 
Q 9.375 53.515625 8.984375 60.9375 
L 33.59375 60.9375 
L 33.59375 69.53125 
Q 33.203125 75.78125 33.203125 80.46875 
L 42.1875 80.46875 
Q 41.40625 75.390625 41.40625 69.921875 
L 41.40625 60.9375 
L 57.8125 60.9375 
L 57.8125 70.703125 
Q 57.8125 75.78125 57.421875 80.859375 
L 66.40625 80.859375 
Q 66.015625 76.171875 66.015625 71.09375 
L 66.015625 60.9375 
L 91.40625 60.9375 
Q 91.015625 55.078125 91.015625 42.96875 
z
M 57.8125 5.078125 
L 57.8125 29.296875 
L 41.40625 29.296875 
L 41.40625 5.078125 
z
M 82.421875 5.078125 
L 82.421875 29.296875 
L 66.015625 29.296875 
L 66.015625 5.078125 
z
M 33.59375 5.078125 
L 33.59375 29.296875 
L 17.96875 29.296875 
L 17.96875 5.078125 
z
M 57.8125 35.15625 
L 57.8125 55.078125 
L 41.40625 55.078125 
L 41.40625 35.15625 
z
M 82.421875 35.15625 
L 82.421875 55.078125 
L 66.015625 55.078125 
L 66.015625 35.15625 
z
M 33.59375 35.15625 
L 33.59375 55.078125 
L 17.96875 55.078125 
L 17.96875 35.15625 
z
" id="SimHei-26354"/>
      <path d="M 53.90625 67.1875 
Q 53.90625 73.046875 52.734375 80.078125 
Q 57.8125 79.6875 63.28125 78.90625 
Q 62.109375 76.5625 61.71875 71.28125 
Q 61.328125 66.015625 61.71875 56.25 
L 75 58.59375 
Q 81.640625 60.15625 88.28125 62.109375 
L 89.84375 54.6875 
Q 83.203125 53.90625 76.171875 52.734375 
L 62.109375 50 
Q 62.109375 43.75 62.890625 39.0625 
L 78.125 41.796875 
Q 85.9375 43.359375 92.96875 45.703125 
L 94.140625 38.28125 
Q 87.109375 37.109375 79.296875 35.546875 
L 64.0625 32.8125 
Q 64.84375 25 67.96875 18.359375 
Q 71.484375 21.09375 74.796875 24.609375 
Q 78.125 28.125 80.859375 32.421875 
Q 86.71875 27.734375 89.84375 26.171875 
Q 84.765625 23.828125 81.828125 20.890625 
Q 78.90625 17.96875 72.265625 11.71875 
Q 76.953125 3.90625 80.65625 1.75 
Q 84.375 -0.390625 85.9375 1.5625 
Q 87.5 3.515625 88.671875 9.765625 
Q 92.1875 7.03125 96.875 5.46875 
Q 90.234375 -11.71875 82.421875 -8.390625 
Q 74.609375 -5.078125 66.015625 7.03125 
Q 60.546875 2.734375 55.265625 -0.96875 
Q 50 -4.6875 42.1875 -8.59375 
Q 40.234375 -4.6875 36.328125 -1.5625 
Q 44.140625 1.171875 49.609375 4.296875 
Q 55.078125 7.421875 62.109375 13.28125 
Q 58.59375 21.09375 57.03125 31.640625 
Q 45.3125 29.6875 40.625 28.125 
L 39.453125 35.546875 
Q 44.140625 35.546875 55.46875 37.890625 
Q 54.6875 44.140625 54.6875 48.4375 
Q 44.140625 46.09375 40.234375 44.921875 
L 38.671875 52.34375 
Q 42.578125 52.34375 53.90625 54.6875 
z
M 30.46875 76.171875 
Q 26.5625 72.65625 22.84375 66.203125 
Q 19.140625 59.765625 12.890625 50.390625 
Q 22.265625 50.78125 25.78125 50.78125 
Q 29.296875 56.640625 32.03125 63.671875 
Q 35.9375 60.9375 40.625 59.375 
Q 36.71875 55.46875 32.609375 48.828125 
Q 28.515625 42.1875 18.359375 26.171875 
Q 28.90625 26.953125 37.109375 27.734375 
Q 35.9375 23.828125 35.9375 21.09375 
Q 33.203125 21.09375 23.828125 20.109375 
Q 14.453125 19.140625 8.59375 17.578125 
Q 8.203125 21.484375 6.25 25.78125 
Q 10.9375 26.953125 14.84375 32.03125 
Q 18.75 37.109375 23.046875 44.921875 
Q 10.15625 44.140625 6.640625 41.796875 
Q 5.46875 46.09375 3.125 50.390625 
Q 8.203125 53.90625 12.890625 61.90625 
Q 17.578125 69.921875 21.484375 80.46875 
Q 25.390625 77.734375 30.46875 76.171875 
z
M 40.234375 13.671875 
Q 39.84375 9.375 40.234375 7.03125 
Q 30.46875 5.078125 22.65625 3.125 
Q 14.84375 1.171875 8.203125 -1.171875 
Q 7.03125 3.125 3.90625 7.421875 
Q 14.84375 8.59375 20.703125 9.5625 
Q 26.5625 10.546875 40.234375 13.671875 
z
M 75.78125 62.890625 
Q 73.046875 67.1875 68.359375 73.046875 
L 74.609375 76.171875 
Q 76.171875 74.21875 82.421875 66.796875 
Q 78.515625 65.234375 75.78125 62.890625 
z
" id="SimHei-32447"/>
     </defs>
     <g transform="translate(893.88 109.3725)scale(0.1728 -0.1728)">
      <use xlink:href="#SimHei-25311"/>
      <use x="100" xlink:href="#SimHei-21512"/>
      <use x="200" xlink:href="#SimHei-26354"/>
      <use x="300" xlink:href="#SimHei-32447"/>
     </g>
    </g>
    <g id="PathCollection_2">
     <g>
      <use style="fill:#1f77b4;stroke:#1f77b4;stroke-width:1.5;" x="875.88" xlink:href="#mbeebcb3262" y="127.5425"/>
     </g>
    </g>
    <g id="text_16">
     <!-- 数据点 -->
     <defs>
      <path d="M 70.703125 76.953125 
Q 69.921875 75 68.75 71.671875 
Q 67.578125 68.359375 65.234375 59.765625 
L 83.203125 59.765625 
Q 87.109375 59.765625 92.578125 60.15625 
L 92.578125 53.125 
Q 88.28125 53.515625 85.9375 53.515625 
Q 85.9375 47.265625 83.78125 33.78125 
Q 81.640625 20.3125 76.171875 10.546875 
Q 80.078125 5.859375 84.953125 2.140625 
Q 89.84375 -1.5625 94.140625 -3.125 
Q 89.453125 -6.640625 87.890625 -9.765625 
Q 83.203125 -7.03125 79.296875 -3.515625 
Q 75.390625 0 71.484375 5.078125 
Q 67.1875 0.390625 62.296875 -2.921875 
Q 57.421875 -6.25 50 -10.15625 
Q 48.046875 -6.640625 44.53125 -4.6875 
Q 50.390625 -2.34375 57.03125 1.953125 
Q 63.671875 6.25 67.1875 10.546875 
Q 64.453125 16.015625 61.90625 22.265625 
Q 59.375 28.515625 57.421875 38.671875 
Q 56.25 35.546875 53.515625 30.46875 
Q 50.78125 32.03125 46.875 33.59375 
Q 53.125 44.53125 57.03125 57.421875 
Q 60.9375 70.3125 62.109375 79.6875 
Q 66.796875 77.734375 70.703125 76.953125 
z
M 32.8125 35.15625 
Q 31.25 33.59375 29.296875 30.078125 
L 50.78125 30.078125 
Q 48.4375 20.3125 42.578125 10.546875 
Q 48.828125 8.203125 52.34375 6.25 
Q 50.390625 3.515625 48.828125 0.390625 
Q 45.3125 2.734375 38.28125 5.078125 
Q 30.46875 -3.515625 11.328125 -10.15625 
Q 9.375 -5.859375 6.25 -4.296875 
Q 24.609375 0 31.25 7.421875 
Q 20.3125 10.15625 13.28125 12.109375 
Q 15.625 15.625 19.53125 23.828125 
Q 15.625 23.828125 6.640625 23.4375 
L 6.640625 30.46875 
Q 14.0625 30.078125 21.875 30.078125 
Q 23.4375 33.59375 24.21875 37.890625 
Q 28.515625 36.328125 32.8125 35.15625 
z
M 27.734375 61.71875 
Q 27.734375 71.09375 27.34375 79.6875 
L 35.15625 79.6875 
Q 34.765625 71.484375 34.765625 61.71875 
Q 48.046875 61.71875 53.515625 62.109375 
L 53.515625 55.078125 
Q 48.046875 55.46875 34.765625 55.46875 
Q 34.765625 44.140625 35.15625 37.890625 
L 27.34375 37.890625 
Q 27.734375 43.359375 27.734375 51.5625 
Q 25.78125 48.4375 20.3125 43.546875 
Q 14.84375 38.671875 10.15625 35.9375 
Q 8.203125 39.453125 4.296875 41.015625 
Q 7.8125 42.1875 13.671875 46.484375 
Q 19.53125 50.78125 22.65625 55.46875 
Q 14.84375 55.46875 7.8125 55.078125 
L 7.8125 62.109375 
Q 14.453125 61.71875 27.734375 61.71875 
z
M 62.109375 49.609375 
Q 65.625 26.5625 71.875 17.578125 
Q 75.78125 26.5625 77.140625 35.734375 
Q 78.515625 44.921875 78.90625 53.515625 
L 63.671875 53.515625 
L 62.109375 49.609375 
z
M 22.65625 15.625 
Q 27.34375 14.453125 35.546875 12.5 
Q 38.671875 16.40625 41.40625 23.828125 
L 26.953125 23.828125 
Q 25 19.921875 22.65625 15.625 
z
M 51.953125 75.390625 
Q 50 72.265625 48.828125 69.53125 
Q 47.65625 66.796875 45.703125 62.890625 
Q 42.578125 64.453125 39.453125 65.234375 
Q 42.578125 70.3125 45.3125 78.125 
Q 49.21875 76.171875 51.953125 75.390625 
z
M 40.234375 52.734375 
Q 45.3125 47.65625 50 42.578125 
Q 47.65625 40.625 44.921875 37.890625 
Q 39.453125 44.53125 35.9375 48.4375 
Q 38.28125 50.390625 40.234375 52.734375 
z
M 14.453125 78.125 
Q 19.921875 72.65625 23.4375 67.1875 
L 17.578125 63.671875 
Q 14.84375 69.140625 9.375 73.828125 
Q 12.890625 76.171875 14.453125 78.125 
z
" id="SimHei-25968"/>
      <path d="M 89.84375 74.609375 
Q 89.453125 71.09375 89.453125 66.015625 
L 89.453125 60.9375 
Q 89.453125 53.90625 89.84375 50.78125 
L 48.4375 50.78125 
L 48.4375 39.0625 
L 66.40625 39.0625 
Q 66.40625 42.578125 66.015625 49.609375 
L 73.4375 49.609375 
Q 73.046875 43.359375 73.046875 39.0625 
L 83.59375 39.0625 
Q 90.625 39.0625 95.3125 39.453125 
L 95.3125 32.421875 
Q 90.625 32.8125 83.984375 32.8125 
L 73.046875 32.8125 
L 73.046875 22.265625 
L 90.234375 22.265625 
Q 89.84375 14.84375 89.84375 12.5 
L 89.84375 2.734375 
Q 89.84375 -3.515625 90.234375 -8.984375 
L 83.203125 -8.984375 
L 83.203125 -3.515625 
L 57.421875 -3.515625 
L 57.421875 -9.375 
L 50.390625 -9.375 
Q 50.78125 -5.078125 50.78125 1.5625 
L 50.78125 12.890625 
Q 50.78125 16.796875 50.390625 22.265625 
L 66.40625 22.265625 
L 66.40625 32.8125 
L 48.046875 32.8125 
Q 47.65625 21.484375 45.109375 11.515625 
Q 42.578125 1.5625 37.890625 -7.421875 
Q 34.375 -5.078125 30.46875 -3.90625 
Q 35.15625 2.34375 37.296875 9.375 
Q 39.453125 16.40625 40.625 24.40625 
Q 41.796875 32.421875 41.796875 41.015625 
L 41.796875 55.859375 
Q 41.796875 62.109375 41.40625 74.609375 
L 89.84375 74.609375 
z
M 19.921875 69.140625 
Q 19.921875 74.609375 19.53125 79.296875 
L 27.34375 79.296875 
Q 26.953125 75 26.953125 69.140625 
L 26.953125 58.984375 
Q 30.859375 58.984375 39.0625 59.375 
L 39.0625 52.734375 
Q 30.859375 53.125 26.953125 53.125 
L 26.953125 38.28125 
Q 32.03125 41.015625 37.5 44.53125 
Q 37.890625 41.40625 39.453125 38.671875 
Q 32.03125 34.375 26.953125 31.25 
L 26.953125 2.734375 
Q 26.953125 -4.6875 23.234375 -6.25 
Q 19.53125 -7.8125 12.109375 -8.984375 
Q 11.328125 -5.078125 9.375 -0.78125 
Q 16.015625 -0.78125 17.96875 -0.1875 
Q 19.921875 0.390625 19.921875 5.078125 
L 19.921875 28.125 
Q 14.0625 25 8.203125 20.703125 
Q 7.03125 23.828125 4.296875 28.125 
Q 12.109375 30.859375 19.921875 35.15625 
L 19.921875 53.125 
Q 12.5 53.125 5.46875 52.734375 
L 5.46875 59.375 
Q 12.5 58.984375 19.921875 58.984375 
z
M 82.8125 56.640625 
L 82.8125 68.75 
L 48.4375 68.75 
L 48.4375 56.640625 
z
M 83.203125 2.34375 
L 83.203125 16.796875 
L 57.421875 16.796875 
L 57.421875 2.34375 
z
" id="SimHei-25454"/>
      <path d="M 51.953125 81.25 
Q 51.5625 76.953125 51.5625 68.359375 
L 76.5625 68.359375 
Q 82.421875 68.359375 89.453125 68.75 
L 89.453125 61.328125 
Q 82.8125 61.71875 76.5625 61.71875 
L 51.5625 61.71875 
L 51.5625 50.390625 
L 81.640625 50.390625 
Q 81.25 42.1875 81.25 33.59375 
Q 81.25 25.390625 81.640625 18.359375 
L 18.359375 18.359375 
Q 18.75 25.390625 18.75 33.984375 
Q 18.75 42.578125 18.359375 50.390625 
L 43.359375 50.390625 
L 43.359375 70.3125 
Q 43.359375 76.5625 42.96875 81.25 
L 51.953125 81.25 
z
M 73.4375 25 
L 73.4375 43.75 
L 26.953125 43.75 
L 26.953125 25 
z
M 23.4375 11.71875 
Q 16.015625 -3.90625 12.890625 -9.765625 
Q 9.765625 -7.421875 5.078125 -5.859375 
Q 10.15625 0.78125 14.84375 14.453125 
Q 18.75 12.5 23.4375 11.71875 
z
M 83.203125 13.28125 
Q 90.234375 2.34375 94.921875 -5.46875 
Q 92.578125 -6.640625 87.109375 -9.765625 
Q 83.984375 -2.34375 76.5625 8.984375 
Q 80.46875 10.9375 83.203125 13.28125 
z
M 62.109375 -8.984375 
Q 58.984375 -1.5625 53.125 8.984375 
Q 55.859375 10.546875 59.765625 12.890625 
Q 67.96875 -1.171875 69.53125 -5.078125 
Q 65.625 -7.03125 62.109375 -8.984375 
z
M 37.109375 -8.984375 
Q 36.71875 -4.6875 30.859375 8.59375 
Q 34.375 9.765625 37.890625 12.109375 
Q 43.75 -1.171875 45.3125 -5.46875 
Q 41.015625 -7.03125 37.109375 -8.984375 
z
" id="SimHei-28857"/>
     </defs>
     <g transform="translate(893.88 130.1675)scale(0.1728 -0.1728)">
      <use xlink:href="#SimHei-25968"/>
      <use x="100" xlink:href="#SimHei-25454"/>
      <use x="200" xlink:href="#SimHei-28857"/>
     </g>
    </g>
   </g>
  </g>
 </g>
 <defs>
  <clipPath id="pba20d7e941">
   <rect height="554.4" width="837" x="135" y="86.4"/>
  </clipPath>
 </defs>
</svg>
